<mxfile host="app.diagrams.net" agent="Mozilla/5.0 (Windows NT 10.0; Win64; x64) AppleWebKit/537.36 (KHTML, like Gecko) Chrome/136.0.0.0 Safari/537.36" version="27.0.6">
  <diagram name="Страница — 1" id="rjqUv8lZZHGBWkS873jA">
    <mxGraphModel dx="1426" dy="743" grid="1" gridSize="10" guides="1" tooltips="1" connect="1" arrows="1" fold="1" page="1" pageScale="1" pageWidth="827" pageHeight="1169" math="0" shadow="0">
      <root>
        <mxCell id="0" />
        <mxCell id="1" parent="0" />
        <mxCell id="f72fw8iyWBje_sLY3hwh-3" style="edgeStyle=orthogonalEdgeStyle;rounded=0;orthogonalLoop=1;jettySize=auto;html=1;entryX=0.5;entryY=0;entryDx=0;entryDy=0;" edge="1" parent="1" source="f72fw8iyWBje_sLY3hwh-1" target="f72fw8iyWBje_sLY3hwh-2">
          <mxGeometry relative="1" as="geometry" />
        </mxCell>
        <mxCell id="f72fw8iyWBje_sLY3hwh-4" value="Бронировано создано" style="edgeLabel;html=1;align=center;verticalAlign=middle;resizable=0;points=[];" vertex="1" connectable="0" parent="f72fw8iyWBje_sLY3hwh-3">
          <mxGeometry x="-0.075" relative="1" as="geometry">
            <mxPoint as="offset" />
          </mxGeometry>
        </mxCell>
        <mxCell id="f72fw8iyWBje_sLY3hwh-1" value="Бронирования не существует" style="rounded=1;whiteSpace=wrap;html=1;" vertex="1" parent="1">
          <mxGeometry x="110" y="130" width="120" height="60" as="geometry" />
        </mxCell>
        <mxCell id="f72fw8iyWBje_sLY3hwh-6" style="edgeStyle=orthogonalEdgeStyle;rounded=0;orthogonalLoop=1;jettySize=auto;html=1;entryX=0.5;entryY=0;entryDx=0;entryDy=0;" edge="1" parent="1" source="f72fw8iyWBje_sLY3hwh-2" target="f72fw8iyWBje_sLY3hwh-5">
          <mxGeometry relative="1" as="geometry" />
        </mxCell>
        <mxCell id="f72fw8iyWBje_sLY3hwh-7" value="Оплата произведена" style="edgeLabel;html=1;align=center;verticalAlign=middle;resizable=0;points=[];" vertex="1" connectable="0" parent="f72fw8iyWBje_sLY3hwh-6">
          <mxGeometry x="-0.1714" y="1" relative="1" as="geometry">
            <mxPoint as="offset" />
          </mxGeometry>
        </mxCell>
        <mxCell id="f72fw8iyWBje_sLY3hwh-12" style="edgeStyle=orthogonalEdgeStyle;rounded=0;orthogonalLoop=1;jettySize=auto;html=1;entryX=0;entryY=0.5;entryDx=0;entryDy=0;" edge="1" parent="1" source="f72fw8iyWBje_sLY3hwh-2" target="f72fw8iyWBje_sLY3hwh-8">
          <mxGeometry relative="1" as="geometry" />
        </mxCell>
        <mxCell id="f72fw8iyWBje_sLY3hwh-18" value="Бронирование аннулировано системой или клиентом" style="edgeLabel;html=1;align=center;verticalAlign=middle;resizable=0;points=[];" vertex="1" connectable="0" parent="f72fw8iyWBje_sLY3hwh-12">
          <mxGeometry x="-0.1016" relative="1" as="geometry">
            <mxPoint as="offset" />
          </mxGeometry>
        </mxCell>
        <mxCell id="f72fw8iyWBje_sLY3hwh-2" value="Ожидание" style="rounded=1;whiteSpace=wrap;html=1;" vertex="1" parent="1">
          <mxGeometry x="110" y="270" width="120" height="60" as="geometry" />
        </mxCell>
        <mxCell id="f72fw8iyWBje_sLY3hwh-14" style="edgeStyle=orthogonalEdgeStyle;rounded=0;orthogonalLoop=1;jettySize=auto;html=1;entryX=0.5;entryY=1;entryDx=0;entryDy=0;" edge="1" parent="1" source="f72fw8iyWBje_sLY3hwh-5" target="f72fw8iyWBje_sLY3hwh-8">
          <mxGeometry relative="1" as="geometry" />
        </mxCell>
        <mxCell id="f72fw8iyWBje_sLY3hwh-19" value="Клиент запрашивает возврат билетов" style="edgeLabel;html=1;align=center;verticalAlign=middle;resizable=0;points=[];" vertex="1" connectable="0" parent="f72fw8iyWBje_sLY3hwh-14">
          <mxGeometry x="-0.3952" y="1" relative="1" as="geometry">
            <mxPoint as="offset" />
          </mxGeometry>
        </mxCell>
        <mxCell id="f72fw8iyWBje_sLY3hwh-5" value="Подтверждено" style="rounded=1;whiteSpace=wrap;html=1;" vertex="1" parent="1">
          <mxGeometry x="110" y="400" width="120" height="60" as="geometry" />
        </mxCell>
        <mxCell id="f72fw8iyWBje_sLY3hwh-8" value="Отменено" style="rounded=1;whiteSpace=wrap;html=1;" vertex="1" parent="1">
          <mxGeometry x="660" y="270" width="120" height="60" as="geometry" />
        </mxCell>
      </root>
    </mxGraphModel>
  </diagram>
</mxfile>
